<?xml version="1.0" encoding="utf-8"?>
<!-- Generator: Adobe Illustrator 19.1.0, SVG Export Plug-In . SVG Version: 6.00 Build 0)  -->
<svg version="1.1" id="Layer_1" xmlns="http://www.w3.org/2000/svg" xmlns:xlink="http://www.w3.org/1999/xlink" x="0px" y="0px"
	 width="108px" height="46px" viewBox="0 0 108 46" style="enable-background:new 0 0 108 46;" xml:space="preserve">
<style type="text/css">
	.st0{fill:#00a3e0;}
</style>
<g>
	<path class="st0" d="M60.4,45.3c-0.1-0.1-0.2-0.3-0.2-0.5c0-0.3,0.3-0.6,0.6-0.6c0.2,0,0.3,0.1,0.4,0.1c0.4,0.3,0.9,0.5,1.4,0.5
		c0.5,0,0.8-0.2,0.8-0.5v0c0-0.3-0.2-0.5-1.1-0.7c-1.1-0.3-1.9-0.6-1.9-1.7v0c0-1,0.8-1.7,2-1.7c0.7,0,1.3,0.2,1.8,0.5
		c0.1,0.1,0.3,0.2,0.3,0.5c0,0.3-0.3,0.6-0.6,0.6c-0.1,0-0.2,0-0.3-0.1c-0.4-0.2-0.8-0.4-1.2-0.4c-0.5,0-0.7,0.2-0.7,0.5v0
		c0,0.4,0.2,0.5,1.2,0.7c1.1,0.3,1.8,0.7,1.8,1.7v0c0,1.1-0.8,1.7-2.1,1.7C61.8,46,61,45.8,60.4,45.3z"/>
	<path class="st0" d="M68.5,43.8l-1.8-2.5c-0.1-0.1-0.2-0.3-0.2-0.4c0-0.3,0.3-0.6,0.6-0.6c0.3,0,0.5,0.2,0.6,0.4l1.4,2l1.4-2
		c0.2-0.2,0.3-0.4,0.6-0.4c0.4,0,0.6,0.3,0.6,0.6c0,0.2-0.1,0.3-0.2,0.4l-1.8,2.4v1.6c0,0.3-0.3,0.6-0.6,0.6c-0.3,0-0.6-0.3-0.6-0.6
		V43.8z"/>
	<path class="st0" d="M73.9,45.3c-0.1-0.1-0.2-0.3-0.2-0.5c0-0.3,0.3-0.6,0.6-0.6c0.2,0,0.3,0.1,0.4,0.1c0.4,0.3,0.9,0.5,1.4,0.5
		c0.5,0,0.8-0.2,0.8-0.5v0c0-0.3-0.2-0.5-1.1-0.7c-1.1-0.3-1.9-0.6-1.9-1.7v0c0-1,0.8-1.7,2-1.7c0.7,0,1.3,0.2,1.8,0.5
		c0.1,0.1,0.3,0.2,0.3,0.5c0,0.3-0.3,0.6-0.6,0.6c-0.1,0-0.2,0-0.3-0.1c-0.4-0.2-0.8-0.4-1.2-0.4c-0.5,0-0.7,0.2-0.7,0.5v0
		c0,0.4,0.2,0.5,1.2,0.7c1.1,0.3,1.8,0.7,1.8,1.7v0c0,1.1-0.8,1.7-2.1,1.7C75.3,46,74.5,45.8,73.9,45.3z"/>
	<path class="st0" d="M81.9,41.5h-1.2c-0.3,0-0.6-0.3-0.6-0.6c0-0.3,0.3-0.6,0.6-0.6h3.6c0.3,0,0.6,0.3,0.6,0.6
		c0,0.3-0.3,0.6-0.6,0.6h-1.2v3.9c0,0.3-0.3,0.6-0.6,0.6c-0.3,0-0.6-0.3-0.6-0.6V41.5z"/>
	<path class="st0" d="M87.4,45.3v-4.4c0-0.3,0.3-0.6,0.6-0.6h3.1c0.3,0,0.6,0.2,0.6,0.6c0,0.3-0.2,0.5-0.6,0.5h-2.5v1.1h2.1
		c0.3,0,0.6,0.2,0.6,0.6s-0.2,0.5-0.6,0.5h-2.1v1.2h2.5c0.3,0,0.6,0.2,0.6,0.6c0,0.3-0.2,0.5-0.6,0.5H88
		C87.7,45.9,87.4,45.6,87.4,45.3z"/>
	<path class="st0" d="M94.4,40.9c0-0.3,0.3-0.6,0.6-0.6h0.1c0.3,0,0.4,0.1,0.6,0.3l1.5,2.4l1.5-2.4c0.1-0.2,0.3-0.3,0.6-0.3h0.1
		c0.3,0,0.6,0.3,0.6,0.6v4.4c0,0.3-0.3,0.6-0.6,0.6c-0.3,0-0.6-0.3-0.6-0.6v-2.8l-1.1,1.7c-0.1,0.2-0.3,0.3-0.5,0.3
		c-0.2,0-0.4-0.1-0.5-0.3l-1.1-1.6v2.8c0,0.3-0.3,0.6-0.6,0.6c-0.3,0-0.6-0.3-0.6-0.6V40.9z"/>
	<path class="st0" d="M102.8,45.3c-0.1-0.1-0.2-0.3-0.2-0.5c0-0.3,0.3-0.6,0.6-0.6c0.2,0,0.3,0.1,0.4,0.1c0.4,0.3,0.9,0.5,1.4,0.5
		c0.5,0,0.8-0.2,0.8-0.5v0c0-0.3-0.2-0.5-1.1-0.7c-1.1-0.3-1.9-0.6-1.9-1.7v0c0-1,0.8-1.7,2-1.7c0.7,0,1.3,0.2,1.8,0.5
		c0.1,0.1,0.3,0.2,0.3,0.5c0,0.3-0.3,0.6-0.6,0.6c-0.1,0-0.2,0-0.3-0.1c-0.4-0.2-0.8-0.4-1.2-0.4c-0.5,0-0.7,0.2-0.7,0.5v0
		c0,0.4,0.2,0.5,1.2,0.7c1.1,0.3,1.8,0.7,1.8,1.7v0c0,1.1-0.8,1.7-2.1,1.7C104.2,46,103.5,45.8,102.8,45.3z"/>
	<path class="st0" d="M0.1,5c0-1.9,1.5-3.4,3.4-3.4h10.8c3.9,0,7,1.1,9,3.1c1.7,1.7,2.7,4.2,2.7,7.1v0.1c0,4.9-2.4,7.9-6.2,9.4
		l4.7,5.8c0.7,0.8,1.1,1.6,1.1,2.6c0,1.9-1.6,3.1-3.2,3.1c-1.6,0-2.6-0.8-3.4-1.8l-6.6-8.4H6.9v6.8c0,1.9-1.5,3.4-3.4,3.4
		s-3.4-1.5-3.4-3.4V5z M13.8,16.7c3.3,0,5.2-1.8,5.2-4.4v-0.1c0-2.9-2-4.4-5.4-4.4H6.9v8.9H13.8z"/>
	<path class="st0" d="M40,33.1c-7.1,0-12.4-5-12.4-12.3v-0.1c0-6.8,4.8-12.4,11.7-12.4c7.9,0,11.4,6.5,11.4,11.4
		c0,1.9-1.4,3.2-3.1,3.2H34.3c0.7,3.1,2.8,4.7,5.8,4.7c1.9,0,3.4-0.6,4.8-1.6c0.5-0.4,0.9-0.5,1.6-0.5c1.5,0,2.6,1.2,2.6,2.7
		c0,0.9-0.4,1.6-0.9,2C46.2,32,43.5,33.1,40,33.1z M44.4,18.9c-0.4-3-2.2-5.1-5-5.1c-2.8,0-4.6,2-5.1,5.1H44.4z"/>
	<path class="st0" d="M63,33.1h-0.4c-1.8,0-3.1-1.2-3.8-2.9l-7.3-16.8c-0.2-0.4-0.4-1-0.4-1.6c0-1.6,1.5-3.1,3.3-3.1
		c1.8,0,2.8,1,3.3,2.4l5.1,13.8l5.2-13.9c0.4-1.2,1.4-2.3,3.1-2.3c1.8,0,3.2,1.4,3.2,3.2c0,0.6-0.2,1.3-0.4,1.6l-7.3,16.8
		C66.1,31.9,64.9,33.1,63,33.1z"/>
	<path class="st0" d="M87.2,33.1c-7.1,0-12.4-5-12.4-12.3v-0.1c0-6.8,4.8-12.4,11.7-12.4c7.9,0,11.4,6.5,11.4,11.4
		c0,1.9-1.4,3.2-3.1,3.2H81.4c0.7,3.1,2.8,4.7,5.8,4.7c1.9,0,3.4-0.6,4.8-1.6c0.5-0.4,0.9-0.5,1.6-0.5c1.5,0,2.6,1.2,2.6,2.7
		c0,0.9-0.4,1.6-0.9,2C93.3,32,90.6,33.1,87.2,33.1z M91.5,18.9c-0.4-3-2.2-5.1-5-5.1c-2.8,0-4.6,2-5.1,5.1H91.5z"/>
	<path class="st0" d="M101.2,3.4c0-1.9,1.5-3.4,3.4-3.4c1.9,0,3.4,1.5,3.4,3.4v26.1c0,1.9-1.5,3.4-3.4,3.4c-1.9,0-3.4-1.5-3.4-3.4
		V3.4z"/>
</g>
</svg>
